<?xml version="1.0" encoding="UTF-8" standalone="no"?>
<!-- Created with Inkscape (http://www.inkscape.org/) -->

<svg
   width="72.050629mm"
   height="22.805099mm"
   viewBox="0 0 72.050629 22.805099"
   version="1.1"
   id="svg5"
   inkscape:version="1.2.1 (9c6d41e410, 2022-07-14)"
   sodipodi:docname="drawing.svg"
   inkscape:export-filename="drawing.png"
   inkscape:export-xdpi="96"
   inkscape:export-ydpi="96"
   xmlns:inkscape="http://www.inkscape.org/namespaces/inkscape"
   xmlns:sodipodi="http://sodipodi.sourceforge.net/DTD/sodipodi-0.dtd"
   xmlns="http://www.w3.org/2000/svg"
   xmlns:svg="http://www.w3.org/2000/svg">
  <sodipodi:namedview
     id="namedview7"
     pagecolor="#ffffff"
     bordercolor="#cccccc"
     borderopacity="1"
     inkscape:showpageshadow="0"
     inkscape:pageopacity="1"
     inkscape:pagecheckerboard="0"
     inkscape:deskcolor="#ffffff"
     inkscape:document-units="px"
     showgrid="false"
     showborder="false"
     borderlayer="false"
     inkscape:zoom="2.025849"
     inkscape:cx="-407.48348"
     inkscape:cy="816.69463"
     inkscape:window-width="1920"
     inkscape:window-height="991"
     inkscape:window-x="-9"
     inkscape:window-y="-9"
     inkscape:window-maximized="1"
     inkscape:current-layer="layer1"
     showguides="false" />
  <defs
     id="defs2" />
  <g
     inkscape:label="Layer 1"
     inkscape:groupmode="layer"
     id="layer1"
     transform="translate(320.75227,-220.77177)">
    <g
       id="g10000"
       inkscape:export-filename=".\g10000.png"
       inkscape:export-xdpi="118.06131"
       inkscape:export-ydpi="118.06131">
      <path
         d="m -251.06581,220.77177 h 2.36419 v 14.98022 h -2.36419 z"
         id="path9641"
         style="font-weight:bold;font-size:20.9221px;font-family:'Janna LT';-inkscape-font-specification:'Janna LT, Bold';fill:#1a1a1a;stroke-width:0.264583" />
      <path
         d="m -259.33003,235.75199 q -0.31383,0 -0.41844,-0.16737 -0.12554,-0.16738 -0.12554,-0.3766 v -1.2344 q 0,-0.23015 0.12554,-0.43937 0.12553,-0.20922 0.41844,-0.20922 h 2.46881 v -12.55326 h 2.36419 v 14.98022 z"
         id="path9643"
         style="font-weight:bold;font-size:20.9221px;font-family:'Janna LT';-inkscape-font-specification:'Janna LT, Bold';fill:#1a1a1a;stroke-width:0.264583" />
      <path
         d="m -264.33041,228.8477 q -0.69043,0 -1.46455,0.1883 -0.77412,0.16738 -1.25532,0.46029 0.0837,0.18829 0.31383,0.54397 0.23014,0.35568 0.56489,0.77412 0.33476,0.41844 0.71136,0.81596 0.39752,0.39752 0.79504,0.66951 0.46028,-0.27199 0.8578,-0.64859 0.41844,-0.3766 0.71135,-0.77412 0.29291,-0.39752 0.46029,-0.77411 0.16738,-0.3766 0.16738,-0.66951 0,-0.16738 -0.16738,-0.27199 -0.16738,-0.12553 -0.43936,-0.1883 -0.27199,-0.0628 -0.60675,-0.0837 -0.31383,-0.0418 -0.64858,-0.0418 z m -6.17202,6.90429 q -0.31383,0 -0.43936,-0.16737 -0.12554,-0.16738 -0.12554,-0.3766 v -1.2344 q 0,-0.23015 0.14646,-0.43937 0.12553,-0.20922 0.41844,-0.20922 h 2.13405 q 0.46029,0 0.81597,-0.0418 0.35567,-0.0419 0.60674,-0.10461 -0.3766,-0.35568 -0.7532,-0.79504 -0.3766,-0.43937 -0.69043,-0.85781 -0.31383,-0.43936 -0.54397,-0.81596 -0.23015,-0.39752 -0.31383,-0.64859 l -0.0837,-1.67377 q 0.46028,-0.37659 1.0461,-0.71135 0.58582,-0.33475 1.23441,-0.58582 0.6695,-0.25106 1.35993,-0.39752 0.69043,-0.14645 1.38086,-0.14645 1.06703,0 1.84115,0.23014 0.77411,0.20922 1.27624,0.5649 0.50213,0.35567 0.7532,0.79504 0.25107,0.41844 0.25107,0.81596 0,0.87873 -0.46029,1.96668 -0.46029,1.08795 -1.7993,2.34327 0.43936,0.0628 1.46455,0.0628 h 1.77837 q 0.33476,0 0.46029,0.16738 0.12553,0.16737 0.12553,0.39752 v 1.27624 q 0,0.16738 -0.14645,0.3766 -0.12553,0.20922 -0.43937,0.20922 h -1.82022 q -1.40178,0 -2.34327,-0.29291 -0.9415,-0.29291 -1.44363,-0.58581 -0.79504,0.46028 -1.73653,0.6695 -0.92058,0.20922 -1.82023,0.20922 z"
         id="path9645"
         style="font-weight:bold;font-size:20.9221px;font-family:'Janna LT';-inkscape-font-specification:'Janna LT, Bold';fill:#1a1a1a;stroke-width:0.264583" />
      <path
         d="m -271.04641,235.75199 q -0.60674,0 -1.10887,-0.27198 -0.50213,-0.27199 -0.81596,-0.62767 v 0.5649 q 0,0.94149 -0.25106,1.75746 -0.25107,0.81596 -0.7532,1.4227 -0.50213,0.60674 -1.2344,0.94149 -0.73228,0.35568 -1.69469,0.35568 -0.3766,0 -0.73228,-0.0418 -0.33475,-0.0209 -0.58582,-0.0628 -0.16737,-0.0209 -0.29291,-0.0418 -0.14645,-0.0209 -0.27198,-0.0628 l 0.25106,-2.38512 0.58582,0.12553 q 0.25107,0.0419 0.52305,0.0628 0.29291,0.0418 0.52306,0.0418 0.92057,0 1.2344,-0.58582 0.31383,-0.58582 0.31383,-1.71561 v -7.80394 h 2.38512 v 3.9752 q 0,0.83688 0.3766,1.38086 0.39752,0.54397 1.48547,0.54397 h 0.73227 q 0.35568,0 0.46029,0.16738 0.10461,0.16737 0.10461,0.39752 v 1.27624 q 0,0.16738 -0.12553,0.3766 -0.12554,0.20922 -0.43937,0.20922 z"
         id="path9647"
         style="font-weight:bold;font-size:20.9221px;font-family:'Janna LT';-inkscape-font-specification:'Janna LT, Bold';fill:#1a1a1a;stroke-width:0.264583" />
      <path
         style="font-weight:bold;font-size:20.9221px;font-family:'Janna LT';-inkscape-font-specification:'Janna LT, Bold';fill:#aa0000;stroke-width:0.264583"
         d="m -282.86739,238.38818 q 0,-0.50213 0.35567,-0.85781 0.3766,-0.33475 0.92057,-0.33475 0.52306,0 0.87873,0.33475 0.3766,0.35568 0.3766,0.85781 0,0.52305 -0.3766,0.8578 -0.35567,0.35568 -0.87873,0.35568 -0.54397,0 -0.92057,-0.35568 -0.35567,-0.33475 -0.35567,-0.8578 z"
         id="path9678" />
      <path
         style="font-weight:bold;font-size:20.9221px;font-family:'Janna LT';-inkscape-font-specification:'Janna LT, Bold';fill:#1a1a1a;stroke-width:0.264583"
         d="m -285.3362,235.75199 q -0.29291,0 -0.41844,-0.16737 -0.12554,-0.16738 -0.12554,-0.3766 v -1.2344 q 0,-0.23015 0.14646,-0.43937 0.12553,-0.20922 0.39752,-0.20922 h 2.86633 V 227.425 h 2.38512 v 8.32699 z"
         id="path9663" />
      <path
         style="font-weight:bold;font-size:20.9221px;font-family:'Janna LT';-inkscape-font-specification:'Janna LT, Bold';fill:#aa0000;stroke-width:0.264583"
         d="m -297.99408,242.36338 q 0,-0.50213 0.35568,-0.85781 0.35567,-0.33475 0.89965,-0.33475 0.54397,0 0.89965,0.33475 0.35567,0.35568 0.35567,0.85781 0,0.52305 -0.35567,0.8578 -0.35568,0.35568 -0.89965,0.35568 -0.54398,0 -0.89965,-0.35568 -0.35568,-0.33475 -0.35568,-0.8578 z"
         id="path9674" />
      <path
         style="font-weight:bold;font-size:20.9221px;font-family:'Janna LT';-inkscape-font-specification:'Janna LT, Bold';fill:#aa0000;stroke-width:0.264583"
         d="m -301.237,242.36338 q 0,-0.50213 0.35567,-0.85781 0.35568,-0.33475 0.89965,-0.33475 0.54398,0 0.89965,0.33475 0.35568,0.35568 0.35568,0.85781 0,0.52305 -0.35568,0.8578 -0.35567,0.35568 -0.89965,0.35568 -0.54397,0 -0.89965,-0.35568 -0.35567,-0.33475 -0.35567,-0.8578 z"
         id="path9672" />
      <path
         style="font-weight:bold;font-size:20.9221px;font-family:'Janna LT';-inkscape-font-specification:'Janna LT, Bold';fill:#1a1a1a;stroke-width:0.264583"
         d="m -288.91389,235.75199 v -3.80782 q 0,-0.71135 -0.14645,-1.12979 -0.12553,-0.43937 -0.41844,-0.66951 -0.27199,-0.23014 -0.71135,-0.29291 -0.41845,-0.0837 -0.98334,-0.0837 h -0.1883 v 4.41457 q 0,1.25532 -0.41844,2.34327 -0.41845,1.10887 -1.29717,1.92483 -0.87873,0.81597 -2.23867,1.29717 -1.35993,0.48121 -3.222,0.48121 -1.69469,0 -2.90817,-0.50213 -1.21349,-0.50213 -1.9876,-1.29717 -0.77412,-0.77412 -1.15072,-1.75745 -0.35567,-0.98334 -0.35567,-1.96668 0,-1.12979 0.37659,-2.09221 0.39752,-0.96242 1.00426,-1.84115 l 1.96668,1.15072 q -0.48121,0.71135 -0.71135,1.40178 -0.20922,0.66951 -0.20922,1.2344 0,0.69043 0.27199,1.25533 0.27198,0.58582 0.79504,1.00426 0.54397,0.41844 1.31809,0.64859 0.79504,0.25106 1.7993,0.25106 1.00426,0 1.84114,-0.20922 0.83689,-0.1883 1.44363,-0.58582 0.62766,-0.3766 0.96242,-0.96242 0.33475,-0.56489 0.33475,-1.29717 v -7.23904 h 2.90817 q 2.21774,0 3.26385,1.06702 1.0461,1.06703 1.0461,3.22201 v 1.611 h 1.33902 q 0.29291,0 0.41844,0.16738 0.14645,0.16737 0.14645,0.39752 v 1.27624 q 0,0.16738 -0.14645,0.3766 -0.12553,0.20922 -0.41844,0.20922 z"
         id="path9668" />
      <path
         id="path3576"
         style="opacity:1;fill:#aa0000;fill-opacity:1;stroke:none;stroke-width:1.48431;stroke-dasharray:none"
         d="m -314.43384,222.12524 c -3.48954,0 -6.31843,2.82889 -6.31843,6.31844 0,0.43619 0.044,0.86192 0.12821,1.27323 0.0841,0.41131 0.20861,0.80794 0.36847,1.18591 0.15986,0.37795 0.35522,0.7373 0.5823,1.07344 0.22709,0.33613 0.48559,0.64915 0.77144,0.935 0.14292,0.14293 0.29286,0.27892 0.44897,0.40766 0.15611,0.12873 0.31839,0.25024 0.48646,0.36378 0.16806,0.11355 0.82074,0.56825 1.21104,0.87878 0.32712,0.26027 0.65861,0.51949 0.94565,0.8234 0.17566,0.18597 0.37445,0.36981 0.47028,0.60702 0.12209,0.30218 0.17251,0.65255 0.10603,0.97163 -0.0811,0.38957 -0.39357,0.69177 -0.59253,1.03639 -8.2e-4,0.001 -0.001,0.003 -0.002,0.004 a 1.8436304,1.8436304 0 0 0 -0.4494,1.20423 1.8436304,1.8436304 0 0 0 1.84361,1.8436 1.8436304,1.8436304 0 0 0 1.8436,-1.8436 1.8436304,1.8436304 0 0 0 -0.4494,-1.2038 c -8.3e-4,-10e-4 -8.3e-4,-0.003 -0.002,-0.004 -0.19108,-0.34963 -0.51189,-0.64756 -0.59296,-1.03767 -0.0662,-0.31864 -0.0156,-0.66868 0.10647,-0.97036 0.0964,-0.23812 0.29402,-0.4239 0.47198,-0.60914 0.38278,-0.39843 0.83373,-0.72604 1.26812,-1.06748 0.28041,-0.22041 0.69468,-0.51903 0.86302,-0.63257 0.16832,-0.11355 0.33104,-0.23504 0.48773,-0.36379 0.15669,-0.12874 0.30734,-0.26472 0.45111,-0.40764 0.28753,-0.28585 0.54809,-0.59887 0.77739,-0.93502 0.2293,-0.33613 0.42715,-0.69548 0.58912,-1.07344 0.16196,-0.37796 0.28804,-0.77459 0.37357,-1.1859 0.0855,-0.41131 0.13078,-0.83705 0.13078,-1.27323 0,-3.48955 -2.82889,-6.31844 -6.31844,-6.31844 z m 0,1.11136 c 2.1474,6e-5 3.88821,1.74087 3.88827,3.88826 -6e-5,2.14742 -1.74086,3.88822 -3.88827,3.88828 -2.14741,-6e-5 -3.88822,-1.74086 -3.88826,-3.88828 5e-5,-2.14739 1.74086,-3.8882 3.88826,-3.88826 z" />
    </g>
  </g>
</svg>
