<?xml version="1.0" encoding="UTF-8" standalone="no"?>
<svg
   height="42.549999"
   width="42.550003"
   version="1.1"
   id="svg4"
   sodipodi:docname="circle.svg"
   xml:space="preserve"
   xmlns:inkscape="http://www.inkscape.org/namespaces/inkscape"
   xmlns:sodipodi="http://sodipodi.sourceforge.net/DTD/sodipodi-0.dtd"
   xmlns="http://www.w3.org/2000/svg"
   xmlns:svg="http://www.w3.org/2000/svg"><defs
     id="defs8" /><sodipodi:namedview
     id="namedview6"
     pagecolor="#6f9140"
     bordercolor="#cccccc"
     borderopacity="1"
     inkscape:showpageshadow="0"
     inkscape:pageopacity="1"
     inkscape:pagecheckerboard="0"
     inkscape:deskcolor="#d1d1d1"
     showgrid="false" /><path
     d="m 21.25,42.55 q -4.4,0 -8.275,-1.65 -3.8750004,-1.65 -6.7750001,-4.55 -2.9,-2.9 -4.55,-6.775 Q -8.1469726e-8,25.7 -8.1469726e-8,21.3 q 0,-4.45 1.649999981469726,-8.325 1.65,-3.8749997 4.55,-6.75 Q 9.0999996,3.35 12.975,1.675 16.85,-2.4889057e-8 21.25,-2.4889057e-8 q 4.45,0 8.325,1.675000024889057 3.875,1.675 6.75,4.55 2.875,2.8750003 4.55,6.75 1.675,3.875 1.675,8.325 0,4.4 -1.675,8.275 -1.675,3.875 -4.55,6.775 -2.875,2.9 -6.75,4.55 -3.875,1.65 -8.325,1.65 z"
     id="path309"
     style="fill:#ffffff" /></svg>
