<?xml version="1.0" encoding="UTF-8" standalone="no"?>
<svg
   height="42.549999"
   width="42.549999"
   version="1.1"
   id="svg4"
   sodipodi:docname="circle.svg"
   xmlns:inkscape="http://www.inkscape.org/namespaces/inkscape"
   xmlns:sodipodi="http://sodipodi.sourceforge.net/DTD/sodipodi-0.dtd"
   xmlns="http://www.w3.org/2000/svg"
   xmlns:svg="http://www.w3.org/2000/svg">
  <defs
     id="defs8" />
  <sodipodi:namedview
     id="namedview6"
     pagecolor="#ffffff"
     bordercolor="#cccccc"
     borderopacity="1"
     inkscape:showpageshadow="0"
     inkscape:pageopacity="1"
     inkscape:pagecheckerboard="0"
     inkscape:deskcolor="#d1d1d1"
     showgrid="false" />
  <path
     d="m 21.25,42.55 q -4.4,0 -8.275,-1.65 Q 9.1,39.25 6.2,36.35 3.3,33.45 1.65,29.575 0,25.7 0,21.3 0,16.85 1.65,12.975 3.3,9.1 6.2,6.225 9.1,3.35 12.975,1.675 16.85,-4.7683716e-8 21.25,-4.7683716e-8 q 4.45,0 8.325,1.675000047683716 3.875,1.675 6.75,4.55 2.875,2.875 4.55,6.75 1.675,3.875 1.675,8.325 0,4.4 -1.675,8.275 -1.675,3.875 -4.55,6.775 -2.875,2.9 -6.75,4.55 -3.875,1.65 -8.325,1.65 z m 0,-4.7 q 6.9,0 11.725,-4.825 Q 37.8,28.2 37.8,21.3 37.8,14.4 32.975,9.575 28.15,4.75 21.25,4.75 14.35,4.75 9.525,9.575 4.7,14.4 4.7,21.3 q 0,6.9 4.825,11.725 4.825,4.825 11.725,4.825 z m 0,-16.55 z"
     id="path2"
     style="fill:#ffffff"
     inkscape:export-filename="circle.png"
     inkscape:export-xdpi="96"
     inkscape:export-ydpi="96" />
</svg>
