<?xml version="1.0" encoding="UTF-8" standalone="no"?>
<!-- Created with Inkscape (http://www.inkscape.org/) -->

<svg
   width="125.28712mm"
   height="18.926514mm"
   viewBox="0 0 125.28712 18.926514"
   version="1.1"
   id="svg9787"
   xmlns:inkscape="http://www.inkscape.org/namespaces/inkscape"
   xmlns:sodipodi="http://sodipodi.sourceforge.net/DTD/sodipodi-0.dtd"
   xmlns="http://www.w3.org/2000/svg"
   xmlns:svg="http://www.w3.org/2000/svg">
  <sodipodi:namedview
     id="namedview9789"
     pagecolor="#ffffff"
     bordercolor="#cccccc"
     borderopacity="1"
     inkscape:showpageshadow="0"
     inkscape:pageopacity="1"
     inkscape:pagecheckerboard="0"
     inkscape:deskcolor="#d1d1d1"
     inkscape:document-units="mm"
     showgrid="false" />
  <defs
     id="defs9784" />
  <g
     inkscape:label="Layer 1"
     inkscape:groupmode="layer"
     id="layer1"
     transform="translate(-52.97957,-112.80912)">
    <g
       aria-label="The Arabian"
       id="text1271"
       style="font-weight:bold;font-size:20.9221px;font-family:'Segoe UI';-inkscape-font-specification:'Segoe UI, Bold';letter-spacing:-1.0795px;fill:#000080;stroke-width:1.7435"
       transform="translate(409.40884,-137.02743)"
       inkscape:export-filename="text1271.svg"
       inkscape:export-xdpi="96"
       inkscape:export-ydpi="96">
      <path
         d="m -344.78318,254.95296 h -4.17829 v 11.96278 h -3.30994 v -11.96278 h -4.15786 v -2.68678 h 11.64609 z"
         style="fill:#000000"
         id="path9680" />
      <path
         d="m -334.16551,266.91574 h -3.21799 v -5.94563 q 0,-2.29858 -1.67541,-2.29858 -0.85813,0 -1.38936,0.6436 -0.53122,0.6436 -0.53122,1.63454 v 5.96607 h -3.22822 v -15.48726 h 3.22822 v 6.57902 h 0.0409 q 1.18504,-1.80821 3.218,-1.80821 3.55512,0 3.55512,4.29067 z"
         style="fill:#000000"
         id="path9682" />
      <path
         d="m -323.29244,262.60464 h -6.8242 q 0.16345,2.27814 2.87066,2.27814 1.72648,0 3.03411,-0.81727 v 2.32922 q -1.45065,0.77641 -3.76965,0.77641 -2.53354,0 -3.93311,-1.39958 -1.39958,-1.40979 -1.39958,-3.92289 0,-2.60505 1.51195,-4.12721 1.51195,-1.52217 3.71858,-1.52217 2.28835,0 3.53469,1.35871 1.25655,1.35872 1.25655,3.68793 z m -2.99325,-1.98187 q 0,-2.2475 -1.81842,-2.2475 -0.77641,0 -1.3485,0.6436 -0.56187,0.6436 -0.68446,1.6039 z"
         style="fill:#000000"
         id="path9684" />
      <path
         d="m -304.55999,266.91574 h -3.59598 l -1.04202,-3.25886 h -5.21009 l -1.03181,3.25886 h -3.57555 l 5.33268,-14.64956 h 3.91268 z m -5.39397,-5.7924 -1.57325,-4.92405 q -0.17367,-0.55165 -0.24518,-1.31784 h -0.0817 q -0.0511,0.6436 -0.25539,1.27698 l -1.59368,4.96491 z"
         style="fill:#000000"
         id="path9686" />
      <path
         d="m -297.30334,259.36621 q -0.5823,-0.31669 -1.35871,-0.31669 -1.05223,0 -1.64475,0.77641 -0.59252,0.76619 -0.59252,2.09425 v 4.99556 h -3.22822 v -10.46105 h 3.22822 v 1.94102 h 0.0409 q 0.76619,-2.1249 2.75829,-2.1249 0.51079,0 0.79683,0.12259 z"
         style="fill:#000000"
         id="path9688" />
      <path
         d="m -288.17718,266.91574 h -3.05455 v -1.50173 h -0.0409 q -1.05224,1.75713 -3.11584,1.75713 -1.52217,0 -2.40073,-0.85814 -0.86835,-0.86834 -0.86835,-2.30878 0,-3.04433 3.6062,-3.51426 l 2.84001,-0.37799 q 0,-1.71626 -1.85928,-1.71626 -1.86951,0 -3.55513,1.11353 v -2.43138 q 0.67425,-0.34734 1.83886,-0.61295 1.17482,-0.26562 2.13512,-0.26562 4.47455,0 4.47455,4.46434 z m -3.03412,-4.2498 v -0.7049 l -1.90015,0.24519 q -1.57324,0.20431 -1.57324,1.42 0,0.55166 0.37798,0.90921 0.38821,0.34734 1.04202,0.34734 0.90922,0 1.4813,-0.62317 0.57209,-0.63338 0.57209,-1.59367 z"
         style="fill:#000000"
         id="path9690" />
      <path
         d="m -283.43364,265.70005 h -0.0409 v 1.21569 h -3.22822 v -15.48726 h 3.22822 v 6.59945 h 0.0409 q 1.19526,-1.82864 3.40189,-1.82864 2.02274,0 3.11584,1.38936 1.09309,1.38936 1.09309,3.80031 0,2.61526 -1.27698,4.19872 -1.27698,1.58346 -3.4121,1.58346 -1.9308,0 -2.92174,-1.47109 z m -0.0919,-4.41325 v 1.07266 q 0,1.01137 0.5823,1.67541 0.58231,0.66403 1.49152,0.66403 1.10331,0 1.70605,-0.84792 0.61295,-0.85813 0.61295,-2.42116 0,-1.29742 -0.56187,-2.02274 -0.55166,-0.73555 -1.58346,-0.73555 -0.97051,0 -1.61411,0.72533 -0.63338,0.72533 -0.63338,1.88994 z"
         style="fill:#000000"
         id="path9692" />
      <path
         style="fill:#000000"
         d="m -271.57985,266.91574 h -3.22821 v -10.46105 h 3.22821 z"
         id="path9703" />
      <path
         style="fill:#aa0000;fill-opacity:1"
         d="m -273.17352,254.79972 q -0.81727,0 -1.33828,-0.48015 -0.52101,-0.49036 -0.52101,-1.19525 0,-0.72533 0.52101,-1.18504 0.52101,-0.45972 1.33828,-0.45972 0.82748,0 1.33828,0.45972 0.52101,0.45971 0.52101,1.18504 0,0.73554 -0.52101,1.20547 -0.5108,0.46993 -1.33828,0.46993 z"
         id="path9694" />
      <path
         d="m -261.23801,266.91574 h -3.05454 v -1.50173 h -0.0409 q -1.05224,1.75713 -3.11584,1.75713 -1.52217,0 -2.40073,-0.85814 -0.86835,-0.86834 -0.86835,-2.30878 0,-3.04433 3.6062,-3.51426 l 2.84001,-0.37799 q 0,-1.71626 -1.85929,-1.71626 -1.8695,0 -3.55512,1.11353 v -2.43138 q 0.67425,-0.34734 1.83886,-0.61295 1.17482,-0.26562 2.13511,-0.26562 4.47455,0 4.47455,4.46434 z m -3.03411,-4.2498 v -0.7049 l -1.90015,0.24519 q -1.57324,0.20431 -1.57324,1.42 0,0.55166 0.37798,0.90921 0.38821,0.34734 1.04202,0.34734 0.90921,0 1.4813,-0.62317 0.57209,-0.63338 0.57209,-1.59367 z"
         style="fill:#000000"
         id="path9696" />
      <path
         d="m -249.66004,266.91574 h -3.218 v -5.81283 q 0,-2.43138 -1.7367,-2.43138 -0.8377,0 -1.37914,0.6436 -0.54144,0.6436 -0.54144,1.63454 v 5.96607 h -3.22822 v -10.46105 h 3.22822 v 1.65497 h 0.0409 q 1.1544,-1.91037 3.36102,-1.91037 3.4734,0 3.4734,4.3111 z"
         style="fill:#000000"
         id="path9698" />
    </g>
    <path
       id="path9782"
       style="fill:#aa0000;fill-opacity:1;stroke:none;stroke-width:1.48431;stroke-dasharray:none"
       d="m 171.94807,112.80913 c -3.48954,0 -6.31843,2.82889 -6.31843,6.31844 0,0.43619 0.044,0.86192 0.12821,1.27323 0.0841,0.41131 0.20861,0.80794 0.36847,1.18591 0.15986,0.37795 0.35522,0.7373 0.5823,1.07344 0.22709,0.33613 0.48559,0.64915 0.77144,0.935 0.14292,0.14293 0.29286,0.27892 0.44897,0.40766 0.15611,0.12873 0.31839,0.25024 0.48646,0.36378 0.16806,0.11355 0.82074,0.56825 1.21104,0.87878 0.32712,0.26027 0.65861,0.51949 0.94565,0.8234 0.17566,0.18597 0.37445,0.36981 0.47028,0.60702 0.12209,0.30218 0.17251,0.65255 0.10603,0.97163 -0.0811,0.38957 -0.39357,0.69177 -0.59253,1.03639 -8.2e-4,0.001 -0.001,0.003 -0.002,0.004 a 1.8436304,1.8436304 0 0 0 -0.4494,1.20423 1.8436304,1.8436304 0 0 0 1.84361,1.8436 1.8436304,1.8436304 0 0 0 1.8436,-1.8436 1.8436304,1.8436304 0 0 0 -0.4494,-1.2038 c -8.3e-4,-0.001 -8.3e-4,-0.003 -0.002,-0.004 -0.19108,-0.34963 -0.51189,-0.64756 -0.59296,-1.03767 -0.0662,-0.31864 -0.0156,-0.66868 0.10647,-0.97036 0.0964,-0.23812 0.29402,-0.4239 0.47198,-0.60914 0.38278,-0.39843 0.83373,-0.72604 1.26812,-1.06748 0.28041,-0.22041 0.69468,-0.51903 0.86302,-0.63257 0.16832,-0.11355 0.33104,-0.23504 0.48773,-0.36379 0.15669,-0.12874 0.30734,-0.26472 0.45111,-0.40764 0.28753,-0.28585 0.54809,-0.59887 0.77739,-0.93502 0.2293,-0.33613 0.42715,-0.69548 0.58912,-1.07344 0.16196,-0.37796 0.28804,-0.77459 0.37357,-1.1859 0.0855,-0.41131 0.13078,-0.83705 0.13078,-1.27323 0,-3.48955 -2.82889,-6.31844 -6.31844,-6.31844 z m 0,1.11136 c 2.1474,6e-5 3.88821,1.74087 3.88827,3.88826 -6e-5,2.14742 -1.74086,3.88822 -3.88827,3.88828 -2.14741,-6e-5 -3.88822,-1.74086 -3.88826,-3.88828 5e-5,-2.14739 1.74086,-3.8882 3.88826,-3.88826 z" />
  </g>
</svg>
