<?xml version="1.0" encoding="UTF-8" standalone="no"?>
<!-- Created with Inkscape (http://www.inkscape.org/) -->

<svg
   width="12.637062mm"
   height="18.92651mm"
   viewBox="0 0 12.637062 18.92651"
   version="1.1"
   id="svg9787"
   sodipodi:docname="text1271.svg"
   xmlns:inkscape="http://www.inkscape.org/namespaces/inkscape"
   xmlns:sodipodi="http://sodipodi.sourceforge.net/DTD/sodipodi-0.dtd"
   xmlns="http://www.w3.org/2000/svg"
   xmlns:svg="http://www.w3.org/2000/svg">
  <sodipodi:namedview
     id="namedview9789"
     pagecolor="#ffffff"
     bordercolor="#cccccc"
     borderopacity="1"
     inkscape:showpageshadow="0"
     inkscape:pageopacity="1"
     inkscape:pagecheckerboard="0"
     inkscape:deskcolor="#d1d1d1"
     inkscape:document-units="mm"
     showgrid="false" />
  <defs
     id="defs9784" />
  <g
     inkscape:label="Layer 1"
     inkscape:groupmode="layer"
     id="layer1"
     transform="translate(-165.62964,-112.80913)">
    <path
       id="path9782"
       style="fill:#aa0000;fill-opacity:1;stroke:none;stroke-width:1.48431;stroke-dasharray:none"
       d="m 171.94807,112.80913 c -3.48954,0 -6.31843,2.82889 -6.31843,6.31844 0,0.43619 0.044,0.86192 0.12821,1.27323 0.0841,0.41131 0.20861,0.80794 0.36847,1.18591 0.15986,0.37795 0.35522,0.7373 0.5823,1.07344 0.22709,0.33613 0.48559,0.64915 0.77144,0.935 0.14292,0.14293 0.29286,0.27892 0.44897,0.40766 0.15611,0.12873 0.31839,0.25024 0.48646,0.36378 0.16806,0.11355 0.82074,0.56825 1.21104,0.87878 0.32712,0.26027 0.65861,0.51949 0.94565,0.8234 0.17566,0.18597 0.37445,0.36981 0.47028,0.60702 0.12209,0.30218 0.17251,0.65255 0.10603,0.97163 -0.0811,0.38957 -0.39357,0.69177 -0.59253,1.03639 -8.2e-4,0.001 -0.001,0.003 -0.002,0.004 a 1.8436304,1.8436304 0 0 0 -0.4494,1.20423 1.8436304,1.8436304 0 0 0 1.84361,1.8436 1.8436304,1.8436304 0 0 0 1.8436,-1.8436 1.8436304,1.8436304 0 0 0 -0.4494,-1.2038 c -8.3e-4,-0.001 -8.3e-4,-0.003 -0.002,-0.004 -0.19108,-0.34963 -0.51189,-0.64756 -0.59296,-1.03767 -0.0662,-0.31864 -0.0156,-0.66868 0.10647,-0.97036 0.0964,-0.23812 0.29402,-0.4239 0.47198,-0.60914 0.38278,-0.39843 0.83373,-0.72604 1.26812,-1.06748 0.28041,-0.22041 0.69468,-0.51903 0.86302,-0.63257 0.16832,-0.11355 0.33104,-0.23504 0.48773,-0.36379 0.15669,-0.12874 0.30734,-0.26472 0.45111,-0.40764 0.28753,-0.28585 0.54809,-0.59887 0.77739,-0.93502 0.2293,-0.33613 0.42715,-0.69548 0.58912,-1.07344 0.16196,-0.37796 0.28804,-0.77459 0.37357,-1.1859 0.0855,-0.41131 0.13078,-0.83705 0.13078,-1.27323 0,-3.48955 -2.82889,-6.31844 -6.31844,-6.31844 z m 0,1.11136 c 2.1474,6e-5 3.88821,1.74087 3.88827,3.88826 -6e-5,2.14742 -1.74086,3.88822 -3.88827,3.88828 -2.14741,-6e-5 -3.88822,-1.74086 -3.88826,-3.88828 5e-5,-2.14739 1.74086,-3.8882 3.88826,-3.88826 z"
       inkscape:export-filename="path9782.svg"
       inkscape:export-xdpi="96"
       inkscape:export-ydpi="96" />
  </g>
</svg>
